<svg xmlns="http://www.w3.org/2000/svg" viewBox="0 0 760 180" width="720" role="img"><style>
text{font-family:Inter,-apple-system,system-ui,sans-serif}
.b{fill:#ffffff;stroke:#e7e4ee;stroke-width:1.5}
.b-a{fill:#f3edfd;stroke:#e2d6f8;stroke-width:1.5}
.b-mut{fill:#faf9fc;stroke:#e7e4ee;stroke-width:1.5}
.b-gap{fill:#fdeaec;stroke:#d64550;stroke-width:1.6;stroke-dasharray:5 4}
.t{fill:#17131f;font-size:13px;font-weight:600}
.tm{fill:#565064;font-size:11.5px}
.lab{fill:#8b8698;font-family:'JetBrains Mono',ui-monospace,Menlo,monospace;font-size:10px;letter-spacing:.09em}
.ln{stroke:#8b8698;stroke-width:1.6;fill:none;opacity:.5}
.ln-a{stroke:#4d0fb3;stroke-width:2;fill:none}
.acc{fill:#4d0fb3}.mut{fill:#8b8698}
.ok{fill:#0f9d58}.hold{fill:#b7791f}.block{fill:#d64550}
.axis{stroke:#e7e4ee;stroke-width:1.5}
</style>
<defs>
<marker id="ar" markerWidth="9" markerHeight="9" refX="6.5" refY="4" orient="auto"><path d="M0 0 L7 4 L0 8 z" fill="#8b8698"/></marker>
<marker id="ara" markerWidth="9" markerHeight="9" refX="6.5" refY="4" orient="auto"><path d="M0 0 L7 4 L0 8 z" fill="#4d0fb3"/></marker>
</defs>
  <rect class="b" x="1" y="66" width="112" height="50" rx="12"/>
  <text class="t" x="57" y="96" text-anchor="middle">Agent</text>
  <path class="ln-a" d="M113 91 H147" marker-end="url(#ara)"/>
  <rect class="b-a" x="152" y="52" width="176" height="78" rx="15"/>
  <text class="lab" x="240" y="74" text-anchor="middle" style="fill:#4d0fb3">WHO WHAT HOW WHY</text>
  <text class="t" x="240" y="98" text-anchor="middle">Clevr decides</text>
  <text class="tm" x="240" y="116" text-anchor="middle">before it runs</text>
  <path class="ln" d="M328 91 C380 91 392 33 432 33" marker-end="url(#ar)"/>
  <path class="ln" d="M328 91 H432" marker-end="url(#ar)"/>
  <path class="ln" d="M328 91 C380 91 392 149 432 149" marker-end="url(#ar)"/>
  <rect class="b" x="438" y="12" width="210" height="42" rx="11"/>
  <circle class="ok" cx="459" cy="33" r="5"/>
  <text class="t" x="476" y="30">Allow</text>
  <text class="tm" x="476" y="46">runs at full speed</text>
  <rect class="b" x="438" y="70" width="210" height="42" rx="11"/>
  <circle class="hold" cx="459" cy="91" r="5"/>
  <text class="t" x="476" y="88">Hold</text>
  <text class="tm" x="476" y="104">routed to a human</text>
  <rect class="b" x="438" y="128" width="210" height="42" rx="11"/>
  <circle class="block" cx="459" cy="149" r="5"/>
  <text class="t" x="476" y="146">Block</text>
  <text class="tm" x="476" y="162">stopped, with the reason</text>
</svg>