<svg xmlns="http://www.w3.org/2000/svg" viewBox="0 0 2000 2000">
  <defs>
    <linearGradient id="clevrTile" x1="0" y1="0" x2="2000" y2="2000" gradientUnits="userSpaceOnUse">
      <stop offset="0" stop-color="#9a5cff"/>
      <stop offset="1" stop-color="#4d0fb3"/>
    </linearGradient>
  </defs>
  <rect width="2000" height="2000" rx="460" fill="url(#clevrTile)"/>
  <g fill="#ffffff" transform="translate(1000 1000) scale(0.8) translate(-1000 -1000)">
    <path d="M1732.67,620.4l-333.56,193.38-288.3-165.72,434.44-251.98c75.62,62.14,139.47,138.19,187.42,224.31Z"/>
    <path d="M1496.3,358.77l-717.63,416.28v-508.78c84.42-31.21,175.51-48.24,270.56-48.24,166.14,0,320.37,52.07,447.06,140.74Z"/>
    <path d="M721.92,289.96v835.67l-443.38-257.65c43.84-257.09,213.67-471.75,443.38-578.02Z"/>
    <path d="M998.86,1352.36l-440.68,255.67c-177.21-143.44-290.85-362.65-290.85-607.96,0-23.98,1.14-47.67,3.26-71.08l728.27,423.37Z"/>
    <path d="M1330.86,1225.38v504.1c-87.4,33.91-182.32,52.49-281.63,52.49-163.73,0-315.97-50.65-441.67-137.06l723.3-419.54Z"/>
    <path d="M1730.4,1383.72c-78.6,138.9-198.35,251.55-342.78,321.22v-518.43l342.78,197.21Z"/>
  </g>
</svg>
