<?xml version="1.0" encoding="UTF-8"?>
<svg id="Layer_1" data-name="Layer 1" xmlns="http://www.w3.org/2000/svg" viewBox="0 0 2000 500">
  <defs>
    <style>
      .cls-1 {
        fill: #fff;
      }
    </style>
  </defs>
  <g>
    <path class="cls-1" d="M379.71,184.13l-51.35,29.77-44.38-25.51,66.88-38.79c11.64,9.57,21.47,21.27,28.85,34.53Z"/>
    <path class="cls-1" d="M343.33,143.86l-110.47,64.08v-78.32c13-4.81,27.02-7.43,41.65-7.43,25.58,0,49.32,8.02,68.82,21.67Z"/>
    <path class="cls-1" d="M224.12,133.27v128.64l-68.25-39.66c6.75-39.58,32.89-72.62,68.25-88.98Z"/>
    <path class="cls-1" d="M266.75,296.81l-67.84,39.36c-27.28-22.08-44.77-55.83-44.77-93.59,0-3.69.17-7.34.5-10.94l112.11,65.17Z"/>
    <path class="cls-1" d="M317.86,277.26v77.6c-13.45,5.22-28.07,8.08-43.35,8.08-25.2,0-48.64-7.8-67.99-21.1l111.34-64.58Z"/>
    <path class="cls-1" d="M379.36,301.64c-12.1,21.38-30.53,38.72-52.77,49.45v-79.81l52.77,30.36Z"/>
  </g>
  <g>
    <path class="cls-1" d="M576.02,328.44c-10.14,6.32-24.77,9.47-43.88,9.47-24.6,0-45.17-7.93-61.7-23.81-16.54-15.87-24.81-36.44-24.81-61.7s8.02-46.45,24.06-62.58c16.04-16.12,36.94-24.18,62.7-24.18,18.95,0,33.49,3.16,43.63,9.47v36.9c-12.47-7.64-26.34-11.47-41.63-11.47-13.46,0-24.77,4.7-33.91,14.09-9.14,9.39-13.71,21.98-13.71,37.77s4.57,27.72,13.71,36.77c9.14,9.06,20.94,13.59,35.4,13.59,15.62,0,29-3.99,40.14-11.97v37.65Z"/>
    <path class="cls-1" d="M635.69,335.92h-36.4v-176.26h36.4v176.26Z"/>
    <path class="cls-1" d="M763.04,328.69c-8.64,5.65-21.86,8.48-39.64,8.48-20.78,0-36.94-6.02-48.49-18.08-11.55-12.05-17.33-27.55-17.33-46.5,0-20.11,5.61-35.86,16.83-47.24,11.22-11.38,25.06-17.08,41.51-17.08s30.33,4.95,40.14,14.83c9.81,9.89,14.71,24.64,14.71,44.25,0,3.82-.67,10.39-1.99,19.69h-74.3c2.49,6.98,6.81,12.38,12.96,16.21,6.15,3.82,13.54,5.73,22.19,5.73,12.8,0,23.93-3.57,33.41-10.72v30.42ZM717.42,235.95c-5.82,0-10.97,2.12-15.46,6.36-4.49,4.24-7.48,10.51-8.98,18.82h43.88v-2.99c-1.17-14.79-7.65-22.19-19.45-22.19Z"/>
    <path class="cls-1" d="M861.43,335.92h-37.4l-46.62-126.4h38.15l16.45,53.85c2.49,8.31,4.65,16.17,6.48,23.56,1.83,7.4,2.99,12.76,3.49,16.08l1,4.74c1.5-10.8,5.24-25.59,11.22-44.38l16.95-53.85h37.4l-47.12,126.4Z"/>
    <path class="cls-1" d="M961.82,335.92h-36.4l.25-126.4h36.15v23.44c2.33-7.31,6.19-13.17,11.59-17.58,5.4-4.4,11.68-6.61,18.82-6.61,3.99,0,7.14.34,9.47,1v34.4c-3.99-1.83-8.56-2.74-13.71-2.74-7.81,0-14.13,2.87-18.95,8.6-4.82,5.73-7.23,13.34-7.23,22.81v63.08Z"/>
    <path class="cls-1" d="M1136.91,292.54c0,14.63-4.9,25.8-14.71,33.53-9.81,7.73-22.36,11.59-37.65,11.59-17.29,0-32-3.65-44.13-10.97v-17.2c4.99,3.82,11.43,6.98,19.32,9.47,7.89,2.49,15.91,3.74,24.06,3.74,11.8,0,20.98-2.58,27.55-7.73,6.56-5.15,9.85-12.55,9.85-22.19,0-7.31-2.49-13.25-7.48-17.83-4.99-4.57-12.21-8.93-21.69-13.09-1.33-.66-4.24-1.95-8.73-3.86-4.49-1.91-7.65-3.28-9.47-4.11-1.83-.83-4.65-2.24-8.48-4.24-3.83-1.99-6.61-3.74-8.35-5.24-1.75-1.5-3.95-3.49-6.61-5.98-2.66-2.49-4.57-4.99-5.73-7.48-1.16-2.49-2.24-5.44-3.24-8.85-1-3.41-1.5-7.02-1.5-10.85,0-14.12,5.07-25.14,15.21-33.03,10.14-7.89,22.52-11.84,37.15-11.84s25.59,2.49,34.9,7.48v17.2c-3.99-2.66-9.22-4.9-15.71-6.73-6.48-1.83-12.8-2.74-18.95-2.74-11.14,0-20.03,2.62-26.68,7.85-6.65,5.24-9.97,12.18-9.97,20.82,0,4.49.87,8.48,2.62,11.97,1.75,3.49,4.7,6.69,8.85,9.6,4.15,2.91,7.77,5.15,10.84,6.73,3.07,1.58,7.77,3.7,14.09,6.36,5.82,2.49,10.22,4.45,13.21,5.86,2.99,1.41,6.81,3.62,11.47,6.61,4.65,2.99,8.19,5.94,10.6,8.85,2.41,2.91,4.57,6.65,6.48,11.22,1.91,4.57,2.87,9.6,2.87,15.08Z"/>
    <path class="cls-1" d="M1252.13,329.69c-9.97,4.99-21.61,7.48-34.9,7.48-18.79,0-34.03-5.86-45.75-17.58-11.72-11.72-17.58-27.13-17.58-46.25,0-20.28,5.15-36.23,15.46-47.87,10.3-11.63,23.68-17.45,40.14-17.45,15.46,0,27.76,5.07,36.9,15.21,9.14,10.14,13.71,24.43,13.71,42.88,0,5.65-.33,10.14-1,13.46h-89.25c1.16,13.96,5.98,24.64,14.46,32.04,8.48,7.4,19.7,11.09,33.66,11.09s25.68-2.82,34.16-8.48v15.46ZM1209,222.23c-10.64,0-19.53,3.74-26.67,11.22-7.15,7.48-11.3,18.2-12.47,32.16h74.55v-5.73c0-11.47-3.2-20.61-9.6-27.42-6.4-6.81-15-10.22-25.81-10.22Z"/>
    <path class="cls-1" d="M1370.24,331.68c-7.15,4.82-16.37,7.23-27.67,7.23-20.44,0-36.4-6.44-47.87-19.32-11.47-12.88-17.2-28.38-17.2-46.5s5.86-32.99,17.58-46.12c11.72-13.13,27.55-19.7,47.49-19.7,10.3,0,19.53,2.24,27.67,6.73v15.46c-7.48-4.99-16.21-7.48-26.18-7.48-15.46,0-27.76,5.03-36.9,15.08-9.14,10.06-13.71,22.15-13.71,36.27s4.4,26.34,13.21,36.15c8.81,9.81,21.35,14.71,37.65,14.71,10.14,0,18.78-2.66,25.93-7.98v15.46Z"/>
    <path class="cls-1" d="M1486.15,335.92h-15.21v-22.69c-6.65,16.29-20.03,24.43-40.14,24.43-12.3,0-22.06-3.7-29.3-11.09-7.23-7.39-10.84-17.16-10.84-29.29v-87.76h15.21v83.52c0,9.64,2.53,17.04,7.6,22.19,5.07,5.15,11.76,7.73,20.07,7.73,11.13,0,20.15-3.99,27.05-11.97,6.9-7.98,10.35-18.36,10.35-31.16v-70.31h15.21v126.4Z"/>
    <path class="cls-1" d="M1533.31,335.92h-15.21v-126.4h15.21v21.44c6.98-15.29,18.78-22.94,35.4-22.94,1.16,0,3.24.17,6.23.5v15.46c-3.33-1-6.65-1.5-9.97-1.5-8.98,0-16.5,4.45-22.56,13.34-6.07,8.89-9.1,18.74-9.1,29.54v70.56Z"/>
    <path class="cls-1" d="M1616.94,161.53c2.08,2.08,3.12,4.61,3.12,7.6s-1.04,5.48-3.12,7.48c-2.08,2-4.61,2.99-7.6,2.99s-5.49-1-7.48-2.99c-2-1.99-2.99-4.49-2.99-7.48s1-5.52,2.99-7.6c1.99-2.08,4.49-3.12,7.48-3.12s5.52,1.04,7.6,3.12ZM1617.07,335.92h-15.21v-126.4h15.21v126.4Z"/>
    <path class="cls-1" d="M1714.99,332.43c-4.82,3.16-10.39,4.74-16.71,4.74-23.93,0-35.9-12.3-35.9-36.9v-77.79h-20.69v-12.96h20.69v-31.66h15.46v31.66h36.15v12.96h-36.15v78.53c0,14.46,6.73,21.69,20.2,21.69,6.65,0,12.3-1.91,16.95-5.73v15.46Z"/>
    <path class="cls-1" d="M1799.99,332.68c-6.32,17.12-13.8,28.92-22.44,35.4-8.65,6.48-18.45,9.72-29.42,9.72-3.33,0-6.48-.42-9.47-1.25v-14.96c2.99.83,5.82,1.25,8.48,1.25,17.78,0,30.17-10.14,37.15-30.42l-51.61-122.91h17.45l17.2,42.38,24.43,60.83c1.16-3.82,8.39-24.1,21.69-60.83l15.46-42.38h16.95l-45.87,123.16Z"/>
  </g>
</svg>